<?xml version="1.0" encoding="UTF-8"?>
<svg id="Layer_1" xmlns="http://www.w3.org/2000/svg" version="1.1" viewBox="0 0 2000 2000">
  <!-- Generator: Adobe Illustrator 30.0.0, SVG Export Plug-In . SVG Version: 2.1.1 Build 123)  -->
  <defs>
    <style>
      .st0 {
        fill: #28297e;
      }
    </style>
  </defs>
  <path class="st0" d="M1000,1678.53c-374.14,0-678.53-304.39-678.53-678.53S625.86,321.47,1000,321.47s678.53,304.39,678.53,678.53-304.39,678.53-678.53,678.53ZM1000,357.56c-354.25,0-642.45,288.2-642.45,642.44s288.2,642.45,642.45,642.45,642.45-288.2,642.45-642.45-288.2-642.44-642.45-642.44Z"/>
  <g>
    <polygon class="st0" points="1400.05 546.08 1207.19 546.08 908.82 910.23 781.06 910.23 781.06 1089.77 908.82 1089.77 1207.19 1453.92 1400.05 1453.92 1028.13 1000 1400.05 546.08"/>
    <path class="st0" d="M494.02,1000c0-209.31,150.2-384.23,348.47-422.59v-47.74c-224.29,38.98-395.38,235.04-395.38,470.34s171.1,431.36,395.38,470.34v-47.74c-198.27-38.36-348.47-213.28-348.47-422.59Z"/>
    <path class="st0" d="M584.24,1000c0-159.37,110.11-293.47,258.25-330.24v-48.14c-174.23,37.71-305.16,193.07-305.16,378.39s130.93,340.67,305.16,378.39v-48.14c-148.14-36.77-258.25-170.88-258.25-330.24Z"/>
    <path class="st0" d="M887.7,1338.27l-5.04,46.64c13.79,1.49,27.86,2.25,41.82,2.25h.79v-46.91h-.79c-12.28,0-24.65-.67-36.78-1.97Z"/>
    <path class="st0" d="M962.27,1428.83l4.06,46.74c13.8-1.2,27.69-3.02,41.27-5.4l-8.11-46.21c-12.25,2.15-24.77,3.79-37.22,4.87Z"/>
    <path class="st0" d="M887.2,1428.87l-4,46.75c13.65,1.17,27.54,1.76,41.28,1.76h.27l-.27-46.91c-12.41,0-24.95-.54-37.28-1.59Z"/>
    <path class="st0" d="M925.08,1296.94v-46.91h-.6c-11.91,0-23.88-.85-35.58-2.52l-6.65,46.44c13.89,1.99,28.1,3,42.22,3h.6Z"/>
    <path class="st0" d="M1036.14,1415.84l12.13,45.32c13.36-3.57,26.72-7.79,39.73-12.53l-16.07-44.07c-11.71,4.27-23.75,8.07-35.78,11.28Z"/>
    <path class="st0" d="M986.98,1242.11c-8.68,2.24-17.52,4.02-26.39,5.31l6.75,46.43c13.96-2.03,27.89-5.09,41.38-9.09l-7.48-25.24-14.27-17.41Z"/>
    <path class="st0" d="M1079.33,1354.82l-31.06-37.91c-4.81,1.89-9.65,3.69-14.52,5.34l15.1,44.42c10.28-3.5,20.49-7.48,30.48-11.85Z"/>
    <path class="st0" d="M962,1338.19l5.13,46.63c13.85-1.52,27.76-3.83,41.35-6.84l-10.17-45.8c-11.93,2.65-24.15,4.67-36.31,6.01Z"/>
    <path class="st0" d="M924.48,659.76h.79v-46.91h-.79c-13.96,0-28.03.75-41.82,2.25l5.04,46.64c12.12-1.31,24.5-1.97,36.78-1.97Z"/>
    <path class="st0" d="M1007.61,529.84c-13.58-2.39-27.47-4.2-41.27-5.4l-4.06,46.74c12.45,1.08,24.98,2.72,37.22,4.87l8.11-46.21Z"/>
    <path class="st0" d="M924.48,569.54l.27-46.91h-.27c-13.73,0-27.62.59-41.28,1.76l4,46.75c12.33-1.05,24.87-1.59,37.28-1.59Z"/>
    <path class="st0" d="M924.48,749.98h.6v-46.91h-.6c-14.12,0-28.33,1.01-42.22,3l6.65,46.44c11.7-1.67,23.67-2.52,35.58-2.52Z"/>
    <path class="st0" d="M1087.99,551.37c-13-4.74-26.37-8.96-39.73-12.53l-12.13,45.32c12.03,3.22,24.07,7.02,35.78,11.28l16.07-44.07Z"/>
    <path class="st0" d="M1001.25,740.48l7.48-25.24c-13.49-4-27.41-7.05-41.38-9.09l-6.75,46.43c8.86,1.29,17.7,3.07,26.39,5.31l14.27-17.41Z"/>
    <path class="st0" d="M1079.33,645.18c-9.99-4.37-20.2-8.36-30.48-11.85l-15.1,44.42c4.87,1.65,9.71,3.46,14.52,5.34l31.06-37.91Z"/>
    <path class="st0" d="M1008.49,622.02c-13.59-3.02-27.5-5.32-41.35-6.84l-5.13,46.63c12.16,1.34,24.38,3.36,36.31,6.01l10.17-45.8Z"/>
    <path class="st0" d="M674.46,1000c0-109.17,70.34-202.2,168.03-236.2v-49.19c-124,35.62-214.94,150.09-214.94,285.39s90.94,249.77,214.94,285.39v-49.19c-97.69-33.99-168.03-127.03-168.03-236.2Z"/>
  </g>
</svg>