<?xml version="1.0" encoding="UTF-8"?>
<svg id="Layer_1" xmlns="http://www.w3.org/2000/svg" version="1.1" viewBox="0 0 3000 1689.35">
  <!-- Generator: Adobe Illustrator 30.0.0, SVG Export Plug-In . SVG Version: 2.1.1 Build 123)  -->
  <g>
    <path d="M847.85,1219.69c-206.79,0-375.02-168.23-375.02-375.02s168.23-375.02,375.02-375.02,375.02,168.23,375.02,375.02-168.23,375.02-375.02,375.02ZM847.85,489.6c-195.79,0-355.07,159.28-355.07,355.07s159.28,355.07,355.07,355.07,355.07-159.29,355.07-355.07-159.28-355.07-355.07-355.07Z"/>
    <g>
      <polygon points="1068.96 593.8 962.36 593.8 797.46 795.06 726.85 795.06 726.85 894.29 797.46 894.29 962.36 1095.55 1068.96 1095.55 863.4 844.67 1068.96 593.8"/>
      <path d="M568.2,844.67c0-115.68,83.01-212.36,192.6-233.56v-26.39c-123.96,21.54-218.52,129.91-218.52,259.95s94.56,238.41,218.52,259.95v-26.39c-109.58-21.2-192.6-117.88-192.6-233.56Z"/>
      <path d="M618.07,844.67c0-88.08,60.85-162.2,142.73-182.52v-26.61c-96.3,20.84-168.66,106.71-168.66,209.13s72.36,188.29,168.66,209.13v-26.61c-81.88-20.33-142.73-94.44-142.73-182.52Z"/>
      <path d="M785.79,1031.63l-2.79,25.78c7.62.83,15.4,1.24,23.11,1.24h.44v-25.93h-.44c-6.79,0-13.63-.37-20.33-1.09Z"/>
      <path d="M827,1081.68l2.25,25.83c7.63-.66,15.3-1.67,22.81-2.99l-4.48-25.54c-6.77,1.19-13.69,2.1-20.57,2.69Z"/>
      <path d="M785.51,1081.71l-2.21,25.84c7.55.64,15.22.97,22.81.97h.15l-.15-25.93c-6.86,0-13.79-.3-20.61-.88Z"/>
      <path d="M806.45,1008.79v-25.93h-.33c-6.58,0-13.2-.47-19.66-1.39l-3.67,25.67c7.68,1.1,15.53,1.66,23.34,1.66h.33Z"/>
      <path d="M867.83,1074.51l6.7,25.05c7.38-1.98,14.77-4.31,21.96-6.93l-8.88-24.36c-6.47,2.36-13.13,4.46-19.78,6.24Z"/>
      <path d="M840.66,978.49c-4.8,1.24-9.68,2.22-14.58,2.94l3.73,25.66c7.72-1.12,15.41-2.81,22.87-5.02l-4.13-13.95-7.88-9.62Z"/>
      <path d="M891.7,1040.78l-17.17-20.95c-2.66,1.04-5.34,2.04-8.03,2.95l8.35,24.55c5.68-1.93,11.32-4.13,16.84-6.55Z"/>
      <path d="M826.85,1031.59l2.84,25.77c7.65-.84,15.34-2.12,22.85-3.78l-5.62-25.31c-6.59,1.46-13.35,2.58-20.07,3.32Z"/>
      <path d="M806.11,656.62h.44v-25.93h-.44c-7.71,0-15.49.42-23.11,1.24l2.79,25.78c6.7-.72,13.54-1.09,20.33-1.09Z"/>
      <path d="M852.06,584.82c-7.51-1.32-15.18-2.32-22.81-2.99l-2.25,25.83c6.88.6,13.8,1.5,20.57,2.69l4.48-25.54Z"/>
      <path d="M806.11,606.76l.15-25.93h-.15c-7.59,0-15.27.33-22.81.97l2.21,25.84c6.82-.58,13.75-.88,20.61-.88Z"/>
      <path d="M806.11,706.49h.33v-25.93h-.33c-7.81,0-15.66.56-23.34,1.66l3.67,25.67c6.47-.93,13.08-1.39,19.66-1.39Z"/>
      <path d="M896.48,596.72c-7.19-2.62-14.57-4.95-21.96-6.93l-6.7,25.05c6.65,1.78,13.3,3.88,19.78,6.24l8.88-24.36Z"/>
      <path d="M848.54,701.24l4.13-13.95c-7.46-2.21-15.15-3.9-22.87-5.02l-3.73,25.66c4.9.71,9.79,1.7,14.58,2.94l7.88-9.62Z"/>
      <path d="M891.7,648.57c-5.52-2.42-11.17-4.62-16.84-6.55l-8.35,24.55c2.69.91,5.37,1.91,8.03,2.95l17.17-20.95Z"/>
      <path d="M852.54,635.77c-7.51-1.67-15.2-2.94-22.85-3.78l-2.84,25.77c6.72.74,13.47,1.86,20.07,3.32l5.62-25.31Z"/>
      <path d="M667.93,844.67c0-60.34,38.87-111.76,92.87-130.54v-27.19c-68.53,19.69-118.8,82.95-118.8,157.73s50.26,138.04,118.8,157.73v-27.19c-53.99-18.79-92.87-70.21-92.87-130.54Z"/>
    </g>
  </g>
  <g>
    <g>
      <path d="M1405.6,1018.52v11.83h-29.71v72.7h-13.16v-72.7h-29.83v-11.83h72.7Z"/>
      <path d="M1474.83,1030.35h-47.94v24.03h41.78v11.35h-41.78v25.36h47.82v11.96h-60.75v-84.54h60.86v11.83Z"/>
      <path d="M1524.59,1104.63c-12.56,0-23.05-4.21-31.46-12.62-8.41-8.41-12.62-18.86-12.62-31.34s4.18-22.89,12.56-31.22c8.37-8.33,18.84-12.5,31.4-12.5,10.14,0,18.78,2.56,25.9,7.67,7.13,5.11,11.9,11.37,14.31,18.78l-12.68,3.14c-1.85-4.99-5.23-9.14-10.14-12.44-4.91-3.3-10.71-4.95-17.39-4.95-9.1,0-16.48,3.04-22.16,9.12-5.68,6.08-8.51,13.51-8.51,22.28s2.84,16.36,8.51,22.52c5.68,6.16,13.06,9.24,22.16,9.24,6.68,0,12.48-1.61,17.39-4.83,4.91-3.22,8.25-7.33,10.02-12.32l12.68,3.26c-2.41,7.33-7.17,13.53-14.25,18.6-7.09,5.07-15.66,7.61-25.72,7.61Z"/>
      <path d="M1633.34,1018.52h13.04v84.54h-13.04v-37.2h-43.96v37.2h-13.16v-84.54h13.16v35.5h43.96v-35.5Z"/>
      <path d="M1720.68,1018.52h13.16v84.54h-10.99l-46.86-61.23v61.23h-13.16v-84.54h10.99l46.86,61.23v-61.23Z"/>
      <path d="M1821.52,1092.01c-8.37,8.41-18.84,12.62-31.4,12.62s-23.05-4.21-31.46-12.62c-8.41-8.41-12.62-18.86-12.62-31.34s4.18-22.89,12.56-31.22c8.37-8.33,18.88-12.5,31.52-12.5s23.03,4.17,31.4,12.5c8.37,8.33,12.56,18.74,12.56,31.22s-4.19,22.93-12.56,31.34ZM1767.84,1083.31c5.75,6.16,13.18,9.24,22.28,9.24s16.5-3.08,22.22-9.24c5.72-6.16,8.58-13.75,8.58-22.76s-2.88-16.32-8.64-22.4c-5.76-6.08-13.14-9.12-22.16-9.12s-16.53,3.04-22.28,9.12c-5.76,6.08-8.64,13.55-8.64,22.4s2.88,16.6,8.64,22.76Z"/>
      <path d="M1859.37,1090.98h44.44v12.08h-57.6v-84.54h13.16v72.46Z"/>
      <path d="M1980.86,1092.01c-8.37,8.41-18.84,12.62-31.4,12.62s-23.05-4.21-31.46-12.62c-8.41-8.41-12.62-18.86-12.62-31.34s4.18-22.89,12.56-31.22c8.37-8.33,18.88-12.5,31.52-12.5s23.03,4.17,31.4,12.5c8.37,8.33,12.56,18.74,12.56,31.22s-4.19,22.93-12.56,31.34ZM1927.18,1083.31c5.75,6.16,13.18,9.24,22.28,9.24s16.5-3.08,22.22-9.24c5.72-6.16,8.58-13.75,8.58-22.76s-2.88-16.32-8.64-22.4c-5.76-6.08-13.14-9.12-22.16-9.12s-16.53,3.04-22.28,9.12c-5.76,6.08-8.64,13.55-8.64,22.4s2.88,16.6,8.64,22.76Z"/>
      <path d="M2088.4,1057.16v6.76c0,12.4-3.95,22.28-11.83,29.65-7.89,7.37-18.08,11.05-30.55,11.05s-23.45-4.21-31.94-12.62c-8.49-8.41-12.74-18.86-12.74-31.34s4.23-22.78,12.68-31.16c8.45-8.37,18.92-12.56,31.4-12.56,9.66,0,18.05,2.38,25.18,7.13,7.13,4.75,12.1,10.83,14.92,18.24l-12.32,3.38c-2.26-5.07-5.74-9.1-10.45-12.08-4.71-2.98-10.45-4.47-17.21-4.47-9.1,0-16.55,3.06-22.34,9.18-5.8,6.12-8.7,13.53-8.7,22.22s2.94,16.38,8.82,22.58c5.88,6.2,13.69,9.3,23.43,9.3,8.05,0,14.61-2.19,19.69-6.58,5.07-4.39,7.93-10.2,8.57-17.45l-29.47.12v-11.35h42.87Z"/>
      <path d="M2100.53,1103.06v-84.54h13.28v84.54h-13.28Z"/>
      <path d="M2191.12,1030.35h-47.94v24.03h41.78v11.35h-41.78v25.36h47.82v11.96h-60.75v-84.54h60.86v11.83Z"/>
      <path d="M2234.14,1104.63c-9.42,0-17.51-2.46-24.27-7.37-6.76-4.91-11.35-10.95-13.77-18.11l12.44-3.74c1.93,5.15,5.21,9.38,9.84,12.68,4.63,3.3,10.12,4.95,16.49,4.95,5.63,0,10.24-1.33,13.83-3.99,3.58-2.66,5.37-5.72,5.37-9.18,0-2.82-1.03-5.19-3.08-7.13-2.05-1.93-5.5-3.66-10.33-5.19l-21.25-6.76c-12.64-3.94-18.96-10.83-18.96-20.65,0-6.36,2.78-11.81,8.33-16.36,5.55-4.55,12.52-6.82,20.89-6.82s16.04,1.99,22.28,5.98c6.24,3.99,10.65,9,13.23,15.04l-12.2,3.62c-2.01-3.94-5.05-7.1-9.12-9.48-4.07-2.37-8.8-3.56-14.19-3.56-4.67,0-8.51,1.11-11.53,3.32-3.02,2.22-4.53,4.85-4.53,7.91,0,2.42.85,4.41,2.54,5.98s4.43,2.92,8.21,4.05l20.77,6.64c7.33,2.34,12.84,5.17,16.55,8.51,3.7,3.34,5.55,8.03,5.55,14.07,0,7.25-3.08,13.33-9.24,18.23-6.16,4.91-14.11,7.37-23.85,7.37Z"/>
      <path d="M2324.71,1090.98h44.44v12.08h-57.6v-84.54h13.16v72.46Z"/>
      <path d="M2391.25,1090.98h44.44v12.08h-57.6v-84.54h13.16v72.46Z"/>
      <path d="M2481.35,1104.63c-12.56,0-23.05-4.21-31.46-12.62-8.41-8.41-12.62-18.86-12.62-31.34s4.18-22.89,12.56-31.22c8.37-8.33,18.84-12.5,31.4-12.5,10.14,0,18.78,2.56,25.9,7.67,7.13,5.11,11.9,11.37,14.31,18.78l-12.68,3.14c-1.85-4.99-5.23-9.14-10.14-12.44-4.91-3.3-10.71-4.95-17.39-4.95-9.1,0-16.48,3.04-22.16,9.12-5.68,6.08-8.51,13.51-8.51,22.28s2.84,16.36,8.51,22.52c5.68,6.16,13.06,9.24,22.16,9.24,6.68,0,12.48-1.61,17.39-4.83,4.91-3.22,8.25-7.33,10.02-12.32l12.68,3.26c-2.41,7.33-7.17,13.53-14.25,18.6-7.09,5.07-15.66,7.61-25.72,7.61Z"/>
    </g>
    <g>
      <path d="M1521.45,883.71l-90.39-119.84-42.13,46.63v73.21h-56.03v-286.31h56.03v138.66l120.66-138.66h71.17l-112.89,125.16,121.89,161.15h-68.31Z"/>
      <path d="M1860.77,889.44c-33.27,0-60.33-10.02-81.19-30.06-20.86-20.04-31.29-46.42-31.29-79.15s10.02-57.4,30.06-78.12c20.04-20.72,46.15-31.09,78.33-31.09s59.03,10.09,78.12,30.27c19.08,20.18,28.63,45.54,28.63,76.08,0,8.45-.41,14.87-1.23,19.22h-160.74c1.9,14.18,7.91,25.56,18,34.15,10.08,8.59,24.13,12.88,42.13,12.88,23.99,0,40.76-9.13,50.31-27.4l48.67,14.32c-6.82,15.54-18.88,29.24-36.2,41.11-17.32,11.86-38.52,17.79-63.6,17.79ZM1801.46,762.65h109.21c-1.37-13.09-6.89-23.99-16.57-32.72-9.68-8.72-22.29-13.09-37.83-13.09s-27.47,4.5-37.43,13.5c-9.96,9-15.75,19.77-17.38,32.31Z"/>
      <polygon points="2115.09 823.17 2015.37 973.37 1952.67 973.37 2050.76 823.17 1952.67 672.97 2015.37 672.97 2115.09 823.17"/>
      <polygon points="2212.6 672.96 2146.45 774.29 2082.64 774.29 2149.92 672.96 2212.6 672.96"/>
      <path d="M2300.37,889.44c-28.91,0-53.17-10.43-72.8-31.29-19.63-20.86-29.45-46.83-29.45-77.92s9.82-57.4,29.45-78.12c19.63-20.72,43.9-31.09,72.8-31.09s50.58,10.23,66.67,30.68v-24.95h54.4v206.96h-54.4v-25.36c-16.09,20.73-38.32,31.09-66.67,31.09ZM2309.78,841.18c16.63,0,30.61-5.79,41.93-17.38,11.31-11.59,16.97-26.24,16.97-43.97s-5.66-31.9-16.97-43.36c-11.32-11.45-25.3-17.18-41.93-17.18s-30.82,5.66-41.72,16.97c-10.91,11.32-16.36,25.84-16.36,43.56s5.45,32.72,16.36,44.17c10.9,11.45,24.81,17.18,41.72,17.18Z"/>
      <path d="M2517.76,638.51c-6.28,6.14-13.91,9.2-22.91,9.2s-16.64-3.07-22.91-9.2c-6.27-6.14-9.41-13.7-9.41-22.7s3.13-16.09,9.41-22.09c6.27-5.99,13.91-9,22.91-9s16.63,3,22.91,9c6.27,6,9.41,13.36,9.41,22.09s-3.14,16.56-9.41,22.7ZM2467.04,883.71v-206.96h54.4v206.96h-54.4Z"/>
      <polygon points="1734.67 676.74 1734.67 724.61 1666.37 724.61 1666.37 883.71 1612.38 883.71 1612.38 676.74 1734.67 676.74"/>
    </g>
  </g>
</svg>